<mxfile host="app.diagrams.net" modified="2023-11-26T14:20:52.791Z" agent="Mozilla/5.0 (Macintosh; Intel Mac OS X 10_15_7) AppleWebKit/537.36 (KHTML, like Gecko) Chrome/119.0.0.0 Safari/537.36" version="22.1.4" etag="5g1q8ZOdYSr6Dq9VMYd0" type="github">
  <diagram name="第 1 页" id="oM0XcjSRCLR4_DjJt3RF">
    <mxGraphModel>
      <root>
        <mxCell id="0" />
        <mxCell id="1" parent="0" />
      </root>
    </mxGraphModel>
  </diagram>
</mxfile>
